<?xml version="1.0" encoding="UTF-8"?>
<svg version="1.1" xmlns="http://www.w3.org/2000/svg" width="600" height="600">
<path d="M0 0 C2.63963441 1.09790716 4.1159841 2.52926366 6.13475418 4.55613041 C6.93118332 5.34843555 7.72761246 6.1407407 8.54817581 6.95705509 C9.41276413 7.83242924 10.27735245 8.70780338 11.16814041 9.60970402 C12.08556015 10.52668568 13.00297989 11.44366734 13.94820023 12.38843632 C16.46290944 14.90228437 18.96825818 17.42527845 21.47204304 19.950001 C24.0905347 22.58723934 26.71751763 25.21599125 29.34361649 27.84565067 C34.31483717 32.82619772 39.27836073 37.8143431 44.2391727 42.80525535 C49.88740756 48.48701579 55.54415765 54.1602657 61.20164347 59.83281243 C72.8389827 71.50151408 84.46556743 83.18087083 96.0851326 94.86727238 C99.38762603 93.42650474 101.54504434 91.64532204 104.06987381 89.08939457 C104.85210815 88.30268375 105.6343425 87.51597294 106.44028091 86.7054224 C107.28923431 85.84142323 108.13818771 84.97742405 109.01286697 84.08724308 C110.39621541 82.69201513 111.77956697 81.29679028 113.16303635 79.90168226 C114.64685308 78.40358869 116.1282186 76.9031073 117.6090126 75.40202618 C120.69531892 72.2743429 123.79086183 69.15591406 126.88823318 66.03919315 C135.69356381 57.17628759 144.48874634 48.30339537 153.26921463 39.41585636 C158.12072508 34.50534566 162.98108351 29.60377389 167.85139513 24.71190804 C170.93471381 21.61392112 174.00661024 18.50516163 177.07065964 15.38812125 C179.42286721 13.00175564 181.79131189 10.63172175 184.15739822 8.25911808 C185.00635162 7.38904621 185.85530502 6.51897434 186.72998428 5.62253666 C187.9033358 4.45515965 187.9033358 4.45515965 189.10039139 3.26419926 C189.77732292 2.58006112 190.45425446 1.89592299 191.15169907 1.19105339 C193.0851326 -0.13272762 193.0851326 -0.13272762 195.15839767 0.0104332 C198.21455539 1.36953851 199.99397958 3.29814153 202.0851326 5.86727238 C201.82854754 9.56903654 199.94874476 11.37462005 197.39627457 13.91689396 C196.60396942 14.7133231 195.81166428 15.50975224 194.99534988 16.33031559 C193.68228867 17.62719807 193.68228867 17.62719807 192.34270096 18.95028019 C191.4257193 19.86769993 190.50873764 20.78511967 189.56396866 21.73034 C187.0501206 24.24504921 184.52712653 26.75039796 182.00240397 29.25418282 C179.36516564 31.87267448 176.73641372 34.49965741 174.1067543 37.12575626 C169.12620725 42.09697695 164.13806187 47.0605005 159.14714962 52.02131248 C153.46538919 57.66954734 147.79213928 63.32629743 142.11959255 68.98378325 C130.4508909 80.62112247 118.77153414 92.24770721 107.0851326 103.86727238 C108.52043282 107.15149048 110.2822199 109.30249825 112.82504654 111.81404972 C113.6033432 112.58786991 114.38163986 113.3616901 115.18352127 114.15895939 C116.03816971 114.99856205 116.89281815 115.83816471 117.77336502 116.70320988 C119.15362155 118.0715869 120.53387499 119.43996704 121.9140116 120.808465 C123.39594345 122.27612062 124.88026307 123.74132436 126.36518288 125.20595646 C129.45926215 128.25865659 132.544085 131.32059509 135.62720108 134.38436222 C144.39452545 143.09411336 153.17183746 151.79371363 161.96379471 160.4786005 C166.82156791 165.27737278 171.67040112 170.08499311 176.50952989 174.90256786 C179.57406664 177.95243677 182.6493721 180.99088014 185.73296201 184.0214777 C188.09370087 186.34805765 190.43810667 188.69087506 192.78508377 191.03133488 C193.6458049 191.87093754 194.50652603 192.7105402 195.39332962 193.57558537 C196.16316681 194.34940556 196.933004 195.12322575 197.72616959 195.92049503 C198.40293338 196.59005222 199.07969717 197.25960941 199.77696896 197.94945621 C201.0851326 199.86727238 201.0851326 199.86727238 200.93959904 201.93816471 C199.58444758 204.99765651 197.65512731 206.77541621 195.0851326 208.86727238 C191.40101659 208.60766723 189.60507841 206.758245 187.07347488 204.21637821 C185.89145241 203.04054173 185.89145241 203.04054173 184.68555069 201.84095097 C183.83031311 200.97492756 182.97507553 200.10890415 182.09392166 199.21663761 C181.18625549 198.30940952 180.27858932 197.40218143 179.34341812 196.46746159 C176.8555671 193.98047168 174.37707736 191.48433727 171.90015125 188.98647285 C169.30968721 186.37726144 166.71073121 183.77653709 164.11265945 181.17490482 C159.19456236 176.24748157 154.2841629 171.31246055 149.3764751 166.374672 C143.78869897 160.75336967 138.19240703 155.14057838 132.59537935 149.52848995 C121.08245371 137.98420234 109.58028313 126.42926013 98.0851326 114.86727238 C94.8009145 116.30257259 92.64990673 118.06435968 90.13835526 120.60718632 C89.36453506 121.38548298 88.59071487 122.16377964 87.79344559 122.96566105 C86.95384293 123.82030949 86.11424026 124.67495792 85.2491951 125.5555048 C83.88081808 126.93576133 82.51243794 128.31601476 81.14393997 129.69615138 C79.67628435 131.17808323 78.21108062 132.66240285 76.74644852 134.14732265 C73.69374839 137.24140193 70.63180988 140.32622478 67.56804276 143.40934086 C58.85829161 152.17666522 50.15869134 160.95397724 41.47380447 169.74593449 C36.6750322 174.60370769 31.86741187 179.4525409 27.04983711 184.29166967 C23.99996821 187.35620642 20.96152483 190.43151188 17.93092728 193.51510179 C15.60434733 195.87584065 13.26152992 198.22024644 10.9210701 200.56722355 C10.08146744 201.42794468 9.24186478 202.28866581 8.37681961 203.1754694 C7.60299942 203.94530659 6.82917923 204.71514378 6.03190994 205.50830936 C5.36235275 206.18507316 4.69279556 206.86183695 4.00294876 207.55910873 C2.0851326 208.86727238 2.0851326 208.86727238 0.01424026 208.72173882 C-3.04525153 207.36658736 -4.82301124 205.43726709 -6.9148674 202.86727238 C-6.65526225 199.18315637 -4.80584002 197.38721819 -2.26397324 194.85561466 C-1.08813675 193.67359219 -1.08813675 193.67359219 0.11145401 192.46769047 C1.41048912 191.1848341 1.41048912 191.1848341 2.73576736 189.87606144 C3.64299545 188.96839527 4.55022354 188.0607291 5.48494339 187.1255579 C7.9719333 184.63770688 10.4680677 182.15921713 12.96593213 179.68229103 C15.57514353 177.09182699 18.17586788 174.49287099 20.77750015 171.89479923 C25.70492341 166.97670214 30.63994442 162.06630268 35.57773298 157.15861487 C41.19903531 151.57083874 46.81182659 145.97454681 52.42391503 140.37751913 C63.96820264 128.86459349 75.52314485 117.36242291 87.0851326 105.86727238 C85.64436496 102.56477895 83.86318227 100.40736064 81.30725479 97.88253117 C80.52054398 97.10029682 79.73383316 96.31806248 78.92328262 95.51212406 C78.05928345 94.66317066 77.19528427 93.81421726 76.3051033 92.939538 C74.90987536 91.55618957 73.5146505 90.17283801 72.11954248 88.78936863 C70.62144891 87.30555189 69.12096752 85.82418638 67.6198864 84.34339237 C64.49220312 81.25708605 61.37377428 78.16154315 58.25705338 75.06417179 C49.39414782 66.25884117 40.5212556 57.46365863 31.63371658 48.68319035 C26.72320589 43.8316799 21.82163412 38.97132147 16.92976826 34.10100985 C13.83178135 31.01769117 10.72302185 27.94579474 7.60598147 24.88174534 C5.21961587 22.52953777 2.84958197 20.16109308 0.4769783 17.79500675 C-0.39309357 16.94605335 -1.26316544 16.09709995 -2.15960312 15.22242069 C-3.32698013 14.04906918 -3.32698013 14.04906918 -4.51794052 12.85201359 C-5.20207866 12.17508205 -5.88621679 11.49815052 -6.59108639 10.80070591 C-7.9148674 8.86727238 -7.9148674 8.86727238 -7.77170658 6.7940073 C-6.32328904 3.53701727 -3.87181797 -0.26837221 0 0 Z " fill="#FFFFFF" transform="translate(202.91486740112305,196.13272762298584)"/>
</svg>
