<?xml version="1.0" encoding="UTF-8"?>
<svg version="1.1" xmlns="http://www.w3.org/2000/svg" width="600" height="600">
<path d="M0 0 C54.45 0 108.9 0 165 0 C165 54.45 165 108.9 165 165 C149.82 165 134.64 165 119 165 C119 180.18 119 195.36 119 211 C64.55 211 10.1 211 -46 211 C-46 156.55 -46 102.1 -46 46 C-30.82 46 -15.64 46 0 46 C0 30.82 0 15.64 0 0 Z M10 10 C10 21.55 10 33.1 10 45 C23.31200435 45.83980634 23.31200435 45.83980634 36.60571289 46.12939453 C37.4243985 46.13114685 38.24308411 46.13289917 39.08657837 46.13470459 C41.71529444 46.13900354 44.34393986 46.13623108 46.97265625 46.1328125 C48.83491529 46.1334884 50.69717424 46.1344608 52.55943298 46.13571167 C56.42594254 46.13717189 60.29242874 46.13508649 64.15893555 46.13037109 C69.09793713 46.12463854 74.03688477 46.12798559 78.97588444 46.13394356 C82.80641585 46.13756401 86.63693455 46.13640437 90.46746635 46.13381577 C92.28901615 46.13315247 94.11056714 46.13395385 95.93211555 46.13629532 C98.47438741 46.13885036 101.01657246 46.13494289 103.55883789 46.12939453 C104.29818069 46.13141876 105.0375235 46.13344299 105.79927063 46.13552856 C110.61111116 46.11619003 115.23457002 45.67508286 120 45 C119.96970703 46.23596924 119.93941406 47.47193848 119.90820312 48.74536133 C119.05669211 84.17207529 118.88790547 119.56567247 119 155 C130.88 155 142.76 155 155 155 C155 107.15 155 59.3 155 10 C107.15 10 59.3 10 10 10 Z M-36 56 C-36 103.85 -36 151.7 -36 201 C11.85 201 59.7 201 109 201 C109 153.15 109 105.3 109 56 C61.15 56 13.3 56 -36 56 Z " fill="#FFFFFF" transform="translate(241,195)"/>
</svg>
